<svg width="21" height="21" viewBox="0 0 21 21" fill="none" xmlns="http://www.w3.org/2000/svg">
<path d="M19.0312 11.4845H3.28125V4.10165C3.28049 3.82362 3.33488 3.5482 3.44128 3.29133C3.54768 3.03447 3.70398 2.80125 3.90112 2.6052L3.91753 2.58879C4.22648 2.28029 4.62315 2.0747 5.05333 2.0001C5.48352 1.9255 5.92625 1.98553 6.32104 2.17199C5.9482 2.7919 5.79322 3.51863 5.88075 4.23671C5.96828 4.95479 6.29329 5.62302 6.80412 6.13521L7.25328 6.58437L6.42653 7.41116L7.35455 8.33918L8.1813 7.51243L12.7623 2.93152L13.5891 2.10477L12.661 1.17671L11.8342 2.00346L11.385 1.5543C10.8473 1.01803 10.1384 0.687455 9.38191 0.620179C8.62543 0.552903 7.86933 0.753191 7.24537 1.18614C6.5874 0.770616 5.80768 0.591232 5.03428 0.677455C4.26088 0.763678 3.5398 1.11038 2.98951 1.66061L2.9731 1.67702C2.65369 1.99468 2.40045 2.37254 2.22806 2.78873C2.05566 3.20492 1.96752 3.65117 1.96875 4.10165V11.4845H0.65625V12.797H1.96875V14.0561C1.96872 14.1619 1.98578 14.2671 2.01928 14.3674L3.24023 18.0301C3.30539 18.2262 3.43068 18.3968 3.5983 18.5176C3.76593 18.6384 3.96736 18.7034 4.174 18.7032H4.7031L4.22461 20.3438H5.59178L6.07031 18.7032H14.6057L15.0979 20.3438H16.4678L15.9756 18.7032H16.8258C17.0325 18.7034 17.234 18.6385 17.4016 18.5177C17.5693 18.3968 17.6946 18.2262 17.7598 18.0301L18.9806 14.3674C19.0141 14.2671 19.0312 14.1619 19.0312 14.0561V12.797H20.3438V11.4845H19.0312ZM7.73227 2.48236C8.09386 2.12155 8.58381 1.91892 9.09462 1.91892C9.60543 1.91892 10.0954 2.12155 10.457 2.48236L10.9061 2.93152L8.18143 5.65615L7.73227 5.20707C7.37148 4.84546 7.16886 4.35552 7.16886 3.84471C7.16886 3.33391 7.37148 2.84396 7.73227 2.48236V2.48236ZM17.7188 14.0028L16.5895 17.3907H4.41049L3.28125 14.0028V12.797H17.7188V14.0028Z" fill="black"/>
</svg>
