<svg width="40" height="41" viewBox="0 0 40 41" fill="none" xmlns="http://www.w3.org/2000/svg">
<path d="M20 3.83325C10.8 3.83325 3.33333 11.2999 3.33333 20.4999C3.33333 29.6999 10.8 37.1666 20 37.1666C29.2 37.1666 36.6667 29.6999 36.6667 20.4999C36.6667 11.2999 29.2 3.83325 20 3.83325ZM21.6667 32.1666H18.3333V28.8333H21.6667V32.1666ZM25.1167 19.2499L23.6167 20.7833C22.4167 21.9999 21.6667 22.9999 21.6667 25.4999H18.3333V24.6666C18.3333 22.8333 19.0833 21.1666 20.2833 19.9499L22.35 17.8499C22.9667 17.2499 23.3333 16.4166 23.3333 15.4999C23.3333 13.6666 21.8333 12.1666 20 12.1666C18.1667 12.1666 16.6667 13.6666 16.6667 15.4999H13.3333C13.3333 11.8166 16.3167 8.83325 20 8.83325C23.6833 8.83325 26.6667 11.8166 26.6667 15.4999C26.6667 16.9666 26.0667 18.2999 25.1167 19.2499Z" fill="white"/>
</svg>
