<svg width="62" height="61" viewBox="0 0 62 61" fill="none" xmlns="http://www.w3.org/2000/svg">
<path d="M30.9746 5.08333C16.9446 5.08333 5.58333 16.47 5.58333 30.5C5.58333 44.53 16.9446 55.9167 30.9746 55.9167C45.03 55.9167 56.4167 44.53 56.4167 30.5C56.4167 16.47 45.03 5.08333 30.9746 5.08333ZM31 50.8333C19.7658 50.8333 10.6667 41.7342 10.6667 30.5C10.6667 19.2658 19.7658 10.1667 31 10.1667C42.2342 10.1667 51.3333 19.2658 51.3333 30.5C51.3333 41.7342 42.2342 50.8333 31 50.8333Z" fill="#91598A"/>
<path d="M32.2708 17.7917H28.4583V33.0417L41.8021 41.0479L43.7083 37.9217L32.2708 31.1354V17.7917Z" fill="#91598A"/>
</svg>
