<svg width="40" height="40" viewBox="0 0 40 40" fill="none" xmlns="http://www.w3.org/2000/svg">
<path d="M3.33334 31.6667H36.6667L33.3333 35H6.66668L3.33334 31.6667ZM8.33334 10H10V11.6667H8.33334V10ZM8.33334 6.66667H10V8.33333H8.33334V6.66667ZM15 6.66667V8.33333H11.6667V6.66667H15ZM15 11.6667H11.6667V10H15V11.6667ZM10 25.3833C9.40001 25.5667 8.85001 25.85 8.33334 26.1667V13.3333H10V25.3833ZM6.66668 27.5333C6.03334 28.2667 5.53334 29.0833 5.26668 30H33.3C33.3167 29.7333 33.35 29.45 33.35 29.1667C33.35 24.1 29.25 20 24.1833 20C20.3667 20 17.1 22.3333 15.7167 25.6667C14.7333 25.25 13.65 25 12.5 25C12.2167 25 11.95 25.0333 11.6667 25.0667V13.3333H15C16.7167 13.4333 18.1667 11.7333 18.3333 10H35V8.33333H18.3333C18.1667 6.58333 16.7167 5.05 15 5H5.00001V6.66667H6.66668V8.33333H5.00001V10H6.66668V11.6667H5.00001V13.3333H6.66668V27.5333Z" fill="#5EB4DD"/>
</svg>
